<svg width="28" height="28" viewBox="0 0 28 28" fill="none" xmlns="http://www.w3.org/2000/svg">
<path d="M7.58268 23.3332C5.81324 23.3332 4.30163 22.7207 3.04785 21.4957C1.79407 20.2707 1.16679 18.7734 1.16602 17.004C1.16602 15.4873 1.62296 14.1359 2.53685 12.9498C3.45074 11.7637 4.64657 11.0054 6.12435 10.6748C6.61046 8.88595 7.58268 7.43734 9.04102 6.329C10.4993 5.22067 12.1521 4.6665 13.9993 4.6665C16.2744 4.6665 18.2044 5.45906 19.7895 7.04417C21.3746 8.62928 22.1668 10.5589 22.166 12.8332C23.5077 12.9887 24.6211 13.5674 25.5062 14.5692C26.3913 15.5709 26.8335 16.7423 26.8327 18.0832C26.8327 19.5415 26.3225 20.7813 25.302 21.8025C24.2816 22.8237 23.0418 23.334 21.5827 23.3332H7.58268Z" fill="white"/>
</svg>
