<svg width="48" height="45" viewBox="0 0 48 45" fill="none" xmlns="http://www.w3.org/2000/svg">
<g clip-path="url(#clip0_731_252)">
<path d="M2.13459 39.375H27.5294C28.6969 39.375 29.6471 38.4286 29.6471 37.2656V10.5469C29.6471 10.5145 29.6329 10.4864 29.6287 10.4555C29.6249 10.426 29.6188 10.3968 29.6104 10.3683C29.5819 10.2487 29.5225 10.1386 29.4381 10.0491L19.5572 0.206719C19.4456 0.100764 19.3023 0.0340889 19.1492 0.016875C19.1195 0.0140625 19.0913 0 19.0588 0H2.12612C0.954353 0 0 0.946406 0 2.10938V37.2656C0 38.4286 0.957176 39.375 2.13459 39.375ZM19.7647 2.40047L27.2372 9.84375H20.4706C20.2834 9.84375 20.1038 9.76967 19.9715 9.63781C19.8391 9.50595 19.7647 9.32711 19.7647 9.14062V2.40047ZM1.41176 2.10938C1.41176 1.72125 1.73224 1.40625 2.12612 1.40625H18.3529V9.14062C18.3529 10.3036 19.3031 11.25 20.4706 11.25H28.2353V37.2656C28.2353 37.4521 28.1609 37.6309 28.0285 37.7628C27.8962 37.8947 27.7166 37.9688 27.5294 37.9688H2.13459C2.04078 37.9699 1.94766 37.9526 1.86056 37.9178C1.77347 37.8831 1.69409 37.8316 1.62697 37.7663C1.55985 37.701 1.50629 37.6232 1.46937 37.5373C1.43244 37.4514 1.41287 37.3591 1.41176 37.2656V2.10938Z" fill="#337BCC"/>
<path d="M6.35237 16.875H23.2935C23.4808 16.875 23.6603 16.8009 23.7927 16.6691C23.9251 16.5372 23.9994 16.3584 23.9994 16.1719C23.9994 15.9854 23.9251 15.8066 23.7927 15.6747C23.6603 15.5428 23.4808 15.4688 23.2935 15.4688H6.35237C6.16516 15.4688 5.98561 15.5428 5.85323 15.6747C5.72085 15.8066 5.64648 15.9854 5.64648 16.1719C5.64648 16.3584 5.72085 16.5372 5.85323 16.6691C5.98561 16.8009 6.16516 16.875 6.35237 16.875ZM6.35237 22.5H23.2935C23.4808 22.5 23.6603 22.4259 23.7927 22.2941C23.9251 22.1622 23.9994 21.9834 23.9994 21.7969C23.9994 21.6104 23.9251 21.4316 23.7927 21.2997C23.6603 21.1678 23.4808 21.0938 23.2935 21.0938H6.35237C6.16516 21.0938 5.98561 21.1678 5.85323 21.2997C5.72085 21.4316 5.64648 21.6104 5.64648 21.7969C5.64648 21.9834 5.72085 22.1622 5.85323 22.2941C5.98561 22.4259 6.16516 22.5 6.35237 22.5ZM6.35237 11.25H13.4112C13.5984 11.25 13.7779 11.1759 13.9103 11.0441C14.0427 10.9122 14.1171 10.7334 14.1171 10.5469C14.1171 10.3604 14.0427 10.1816 13.9103 10.0497C13.7779 9.91783 13.5984 9.84375 13.4112 9.84375H6.35237C6.16516 9.84375 5.98561 9.91783 5.85323 10.0497C5.72085 10.1816 5.64648 10.3604 5.64648 10.5469C5.64648 10.7334 5.72085 10.9122 5.85323 11.0441C5.98561 11.1759 6.16516 11.25 6.35237 11.25ZM6.35237 28.125H23.2935C23.4808 28.125 23.6603 28.0509 23.7927 27.9191C23.9251 27.7872 23.9994 27.6084 23.9994 27.4219C23.9994 27.2354 23.9251 27.0566 23.7927 26.9247C23.6603 26.7928 23.4808 26.7188 23.2935 26.7188H6.35237C6.16516 26.7188 5.98561 26.7928 5.85323 26.9247C5.72085 27.0566 5.64648 27.2354 5.64648 27.4219C5.64648 27.6084 5.72085 27.7872 5.85323 27.9191C5.98561 28.0509 6.16516 28.125 6.35237 28.125ZM6.35237 33.75H23.2935C23.4808 33.75 23.6603 33.6759 23.7927 33.5441C23.9251 33.4122 23.9994 33.2334 23.9994 33.0469C23.9994 32.8604 23.9251 32.6816 23.7927 32.5497C23.6603 32.4178 23.4808 32.3438 23.2935 32.3438H6.35237C6.16516 32.3438 5.98561 32.4178 5.85323 32.5497C5.72085 32.6816 5.64648 32.8604 5.64648 33.0469C5.64648 33.2334 5.72085 33.4122 5.85323 33.5441C5.98561 33.6759 6.16516 33.75 6.35237 33.75Z" fill="#337BCC"/>
<path d="M30.3535 7.03125H36.7065V14.7656C36.7065 15.9286 37.6566 16.875 38.8241 16.875H46.5888V42.8906C46.5888 43.0771 46.5144 43.2559 46.3821 43.3878C46.2497 43.5197 46.0701 43.5938 45.8829 43.5938H20.4881C20.3943 43.5949 20.3012 43.5776 20.2141 43.5428C20.127 43.5081 20.0476 43.4566 19.9805 43.3913C19.9134 43.326 19.8598 43.2482 19.8229 43.1623C19.786 43.0764 19.7664 42.9841 19.7653 42.8906V41.4844C19.7653 41.2979 19.6909 41.1191 19.5585 40.9872C19.4262 40.8553 19.2466 40.7812 19.0594 40.7812C18.8722 40.7812 18.6926 40.8553 18.5603 40.9872C18.4279 41.1191 18.3535 41.2979 18.3535 41.4844V42.8906C18.3535 44.0536 19.3107 45 20.4881 45H45.8829C47.0505 45 48.0006 44.0536 48.0006 42.8906V16.1719C48.0006 16.1395 47.9865 16.1114 47.9822 16.0805C47.9784 16.051 47.9723 16.0218 47.9639 15.9933C47.9354 15.8737 47.8761 15.7636 47.7916 15.6741L37.9107 5.83172C37.799 5.72628 37.6557 5.66011 37.5027 5.64328C37.473 5.63906 37.4448 5.625 37.4123 5.625H30.3535C30.1663 5.625 29.9868 5.69908 29.8544 5.83094C29.722 5.9628 29.6476 6.14164 29.6476 6.32812C29.6476 6.51461 29.722 6.69345 29.8544 6.82531C29.9868 6.95717 30.1663 7.03125 30.3535 7.03125ZM38.8241 15.4688C38.6369 15.4688 38.4573 15.3947 38.325 15.2628C38.1926 15.1309 38.1182 14.9521 38.1182 14.7656V8.02547L45.5907 15.4688H38.8241Z" fill="#337BCC"/>
<path d="M33.1766 22.5H41.6472C41.8344 22.5 42.0139 22.4259 42.1463 22.2941C42.2787 22.1622 42.3531 21.9834 42.3531 21.7969C42.3531 21.6104 42.2787 21.4316 42.1463 21.2997C42.0139 21.1678 41.8344 21.0938 41.6472 21.0938H33.1766C32.9894 21.0938 32.8098 21.1678 32.6775 21.2997C32.5451 21.4316 32.4707 21.6104 32.4707 21.7969C32.4707 21.9834 32.5451 22.1622 32.6775 22.2941C32.8098 22.4259 32.9894 22.5 33.1766 22.5ZM33.1766 28.125H41.6472C41.8344 28.125 42.0139 28.0509 42.1463 27.9191C42.2787 27.7872 42.3531 27.6084 42.3531 27.4219C42.3531 27.2354 42.2787 27.0566 42.1463 26.9247C42.0139 26.7928 41.8344 26.7188 41.6472 26.7188H33.1766C32.9894 26.7188 32.8098 26.7928 32.6775 26.9247C32.5451 27.0566 32.4707 27.2354 32.4707 27.4219C32.4707 27.6084 32.5451 27.7872 32.6775 27.9191C32.8098 28.0509 32.9894 28.125 33.1766 28.125ZM33.1766 33.75H41.6472C41.8344 33.75 42.0139 33.6759 42.1463 33.5441C42.2787 33.4122 42.3531 33.2334 42.3531 33.0469C42.3531 32.8604 42.2787 32.6816 42.1463 32.5497C42.0139 32.4178 41.8344 32.3438 41.6472 32.3438H33.1766C32.9894 32.3438 32.8098 32.4178 32.6775 32.5497C32.5451 32.6816 32.4707 32.8604 32.4707 33.0469C32.4707 33.2334 32.5451 33.4122 32.6775 33.5441C32.8098 33.6759 32.9894 33.75 33.1766 33.75ZM33.1766 39.375H41.6472C41.8344 39.375 42.0139 39.3009 42.1463 39.1691C42.2787 39.0372 42.3531 38.8584 42.3531 38.6719C42.3531 38.4854 42.2787 38.3066 42.1463 38.1747C42.0139 38.0428 41.8344 37.9688 41.6472 37.9688H33.1766C32.9894 37.9688 32.8098 38.0428 32.6775 38.1747C32.5451 38.3066 32.4707 38.4854 32.4707 38.6719C32.4707 38.8584 32.5451 39.0372 32.6775 39.1691C32.8098 39.3009 32.9894 39.375 33.1766 39.375Z" fill="#337BCC"/>
</g>
<defs>
<clipPath id="clip0_731_252">
<rect width="48" height="45" fill="white"/>
</clipPath>
</defs>
</svg>
