<svg width="26" height="21" viewBox="0 0 26 21" fill="none" xmlns="http://www.w3.org/2000/svg">
<path d="M0 21V17.7333C0 17.0917 0.165278 16.4889 0.495833 15.925C0.826389 15.3611 1.28333 14.9333 1.86667 14.6417C2.85833 14.1361 3.97639 13.7083 5.22083 13.3583C6.46528 13.0083 7.83611 12.8333 9.33333 12.8333C10.8306 12.8333 12.2014 13.0083 13.4458 13.3583C14.6903 13.7083 15.8083 14.1361 16.8 14.6417C17.3833 14.9333 17.8403 15.3611 18.1708 15.925C18.5014 16.4889 18.6667 17.0917 18.6667 17.7333V21H0ZM6.0375 10.2958C5.12361 9.38194 4.66667 8.28333 4.66667 7H4.375C4.2 7 4.05922 6.94672 3.95267 6.84017C3.84611 6.73361 3.79244 6.59244 3.79167 6.41667C3.79089 6.24089 3.84456 6.09972 3.95267 5.99317C4.06078 5.88661 4.20156 5.83333 4.375 5.83333H4.66667C4.66667 4.95833 4.88056 4.17083 5.30833 3.47083C5.73611 2.77083 6.3 2.21667 7 1.80833V2.91667C7 3.09167 7.05367 3.23283 7.161 3.34017C7.26833 3.4475 7.40911 3.50078 7.58333 3.5C7.75756 3.49922 7.89872 3.44594 8.00683 3.34017C8.11494 3.23439 8.16822 3.09322 8.16667 2.91667V1.34167C8.34167 1.28333 8.52639 1.23978 8.72083 1.211C8.91528 1.18222 9.11944 1.16744 9.33333 1.16667C9.54722 1.16589 9.75139 1.18067 9.94583 1.211C10.1403 1.24133 10.325 1.28489 10.5 1.34167V2.91667C10.5 3.09167 10.5537 3.23283 10.661 3.34017C10.7683 3.4475 10.9091 3.50078 11.0833 3.5C11.2576 3.49922 11.3987 3.44594 11.5068 3.34017C11.6149 3.23439 11.6682 3.09322 11.6667 2.91667V1.80833C12.3667 2.21667 12.9306 2.77083 13.3583 3.47083C13.7861 4.17083 14 4.95833 14 5.83333H14.2917C14.4667 5.83333 14.6078 5.887 14.7152 5.99433C14.8225 6.10167 14.8758 6.24244 14.875 6.41667C14.8742 6.59089 14.8209 6.73206 14.7152 6.84017C14.6094 6.94828 14.4682 7.00156 14.2917 7H14C14 8.28333 13.5431 9.38194 12.6292 10.2958C11.7153 11.2097 10.6167 11.6667 9.33333 11.6667C8.05 11.6667 6.95139 11.2097 6.0375 10.2958ZM10.9818 8.6485C11.4384 8.19117 11.6667 7.64167 11.6667 7H7C7 7.64167 7.22867 8.19117 7.686 8.6485C8.14333 9.10583 8.69244 9.33411 9.33333 9.33333C9.97422 9.33255 10.5237 9.10428 10.9818 8.6485ZM18.0833 14L17.9083 13.125C17.7917 13.0861 17.6801 13.0426 17.5735 12.9943C17.4669 12.9461 17.3647 12.873 17.2667 12.775L16.45 13.0667L15.8667 12.0167L16.5083 11.4333V10.7333L15.8667 10.15L16.45 9.1L17.2667 9.39167C17.3444 9.31389 17.4417 9.24583 17.5583 9.1875C17.675 9.12917 17.7917 9.08055 17.9083 9.04167L18.0833 8.16667H19.25L19.425 9.04167C19.5417 9.08055 19.6583 9.12917 19.775 9.1875C19.8917 9.24583 19.9889 9.31389 20.0667 9.39167L20.8833 9.1L21.4667 10.15L20.825 10.7333V11.4333L21.4667 12.0167L20.8833 13.0667L20.0667 12.775C19.9694 12.8722 19.8676 12.9453 19.761 12.9943C19.6544 13.0433 19.5424 13.0869 19.425 13.125L19.25 14H18.0833ZM19.2792 11.6958C19.4542 11.5208 19.5417 11.3167 19.5417 11.0833C19.5417 10.85 19.4542 10.6458 19.2792 10.4708C19.1042 10.2958 18.9 10.2083 18.6667 10.2083C18.4333 10.2083 18.2292 10.2958 18.0542 10.4708C17.8792 10.6458 17.7917 10.85 17.7917 11.0833C17.7917 11.3167 17.8792 11.5208 18.0542 11.6958C18.2292 11.8708 18.4333 11.9583 18.6667 11.9583C18.9 11.9583 19.1042 11.8708 19.2792 11.6958ZM20.7667 8.16667L20.5333 6.94167C20.3583 6.88333 20.1977 6.81061 20.0515 6.7235C19.9053 6.63639 19.7742 6.53411 19.6583 6.41667L18.4333 6.825L17.6167 5.425L18.6083 4.55C18.5694 4.45278 18.55 4.375 18.55 4.31667V3.85C18.55 3.79167 18.5694 3.71389 18.6083 3.61667L17.6167 2.74167L18.4333 1.34167L19.6583 1.75C19.775 1.63333 19.9064 1.53106 20.0527 1.44317C20.1989 1.35528 20.3591 1.28256 20.5333 1.225L20.7667 0H22.4L22.6333 1.225C22.8083 1.28333 22.9689 1.35644 23.1152 1.44433C23.2614 1.53222 23.3924 1.63411 23.5083 1.75L24.7333 1.34167L25.55 2.74167L24.5583 3.61667C24.5972 3.71389 24.6167 3.79167 24.6167 3.85V4.31667C24.6167 4.375 24.5972 4.45278 24.5583 4.55L25.55 5.425L24.7333 6.825L23.5083 6.41667C23.3917 6.53333 23.2606 6.63561 23.1152 6.7235C22.9697 6.81139 22.8091 6.88411 22.6333 6.94167L22.4 8.16667H20.7667ZM22.6182 5.11817C22.9005 4.83661 23.0417 4.49167 23.0417 4.08333C23.0417 3.675 22.9005 3.32967 22.6182 3.04733C22.3358 2.765 21.9909 2.62422 21.5833 2.625C21.1758 2.62578 20.8304 2.76694 20.5473 3.0485C20.2642 3.33006 20.1234 3.675 20.125 4.08333C20.1266 4.49167 20.2677 4.837 20.5485 5.11933C20.8293 5.40167 21.1742 5.54244 21.5833 5.54167C21.9924 5.54089 22.3366 5.39972 22.6182 5.11817Z" fill="white"/>
</svg>
