<svg width="28" height="28" viewBox="0 0 28 28" fill="none" xmlns="http://www.w3.org/2000/svg">
<path d="M24.5007 8.16675C24.8101 8.16675 25.1068 8.28966 25.3256 8.50846C25.5444 8.72725 25.6673 9.024 25.6673 9.33341C25.6673 9.64283 25.5444 9.93958 25.3256 10.1584C25.1068 10.3772 24.8101 10.5001 24.5007 10.5001V22.1667C24.8101 22.1667 25.1068 22.2897 25.3256 22.5085C25.5444 22.7272 25.6673 23.024 25.6673 23.3334C25.6673 23.6428 25.5444 23.9396 25.3256 24.1584C25.1068 24.3772 24.8101 24.5001 24.5007 24.5001H3.50065C3.19123 24.5001 2.89449 24.3772 2.67569 24.1584C2.4569 23.9396 2.33398 23.6428 2.33398 23.3334C2.33398 23.024 2.4569 22.7272 2.67569 22.5085C2.89449 22.2897 3.19123 22.1667 3.50065 22.1667V10.5001C3.19123 10.5001 2.89449 10.3772 2.67569 10.1584C2.4569 9.93958 2.33398 9.64283 2.33398 9.33341C2.33398 9.024 2.4569 8.72725 2.67569 8.50846C2.89449 8.28966 3.19123 8.16675 3.50065 8.16675H24.5007ZM8.16732 12.8334C7.8579 12.8334 7.56115 12.9563 7.34236 13.1751C7.12357 13.3939 7.00065 13.6907 7.00065 14.0001V22.1667H9.33398V14.0001C9.33398 13.6907 9.21107 13.3939 8.99228 13.1751C8.77348 12.9563 8.47674 12.8334 8.16732 12.8334ZM14.0007 12.8334C13.6912 12.8334 13.3945 12.9563 13.1757 13.1751C12.9569 13.3939 12.834 13.6907 12.834 14.0001V22.1667H15.1673V14.0001C15.1673 13.6907 15.0444 13.3939 14.8256 13.1751C14.6068 12.9563 14.3101 12.8334 14.0007 12.8334ZM19.834 12.8334C19.5246 12.8334 19.2278 12.9563 19.009 13.1751C18.7902 13.3939 18.6673 13.6907 18.6673 14.0001V22.1667H21.0007V14.0001C21.0007 13.6907 20.8777 13.3939 20.6589 13.1751C20.4401 12.9563 20.1434 12.8334 19.834 12.8334ZM21.0007 4.66675C21.3101 4.66675 21.6068 4.78966 21.8256 5.00846C22.0444 5.22725 22.1673 5.524 22.1673 5.83341C22.1673 6.14283 22.0444 6.43958 21.8256 6.65837C21.6068 6.87716 21.3101 7.00008 21.0007 7.00008H7.00065C6.69123 7.00008 6.39449 6.87716 6.17569 6.65837C5.9569 6.43958 5.83398 6.14283 5.83398 5.83341C5.83398 5.524 5.9569 5.22725 6.17569 5.00846C6.39449 4.78966 6.69123 4.66675 7.00065 4.66675H21.0007Z" fill="white"/>
</svg>
