<svg width="28" height="28" viewBox="0 0 28 28" fill="none" xmlns="http://www.w3.org/2000/svg">
<path d="M14.7561 2.23123C14.2573 2.13061 13.7455 2.13061 13.2467 2.23123L5.04359 3.87186C4.55359 3.96811 4.19922 4.40123 4.19922 4.89998C4.19922 5.35061 4.48359 5.74436 4.89922 5.88873V9.09998L4.21234 12.5387C4.20359 12.5781 4.19922 12.6219 4.19922 12.6656C4.19922 13.0156 4.48359 13.3044 4.83797 13.3044H6.36484C6.71484 13.3044 7.00359 13.02 7.00359 12.6656C7.00359 12.6219 6.99922 12.5825 6.99047 12.5387L6.29922 9.09998V6.18186L8.39922 6.60186V9.09998C8.39922 12.1931 10.9061 14.7 13.9992 14.7C17.0923 14.7 19.5992 12.1931 19.5992 9.09998V6.60186L22.9548 5.93248C23.4448 5.83186 23.7992 5.39873 23.7992 4.89998C23.7992 4.40123 23.4448 3.96811 22.9548 3.87186L14.7561 2.23123ZM13.9992 12.6C12.0655 12.6 10.4992 11.0337 10.4992 9.09998H17.4992C17.4992 11.0337 15.933 12.6 13.9992 12.6ZM9.45359 16.8044C6.76734 18.0381 4.89922 20.7506 4.89922 23.9006C4.89922 24.6181 5.48109 25.2 6.19859 25.2H12.9492V18.8125L10.438 16.9312C10.1536 16.7169 9.77297 16.66 9.44922 16.8087L9.45359 16.8044ZM15.0492 25.2H21.7998C22.5173 25.2 23.0992 24.6181 23.0992 23.9006C23.0992 20.7506 21.2311 18.0381 18.5448 16.8087C18.2211 16.66 17.8405 16.7169 17.5561 16.9312L15.0448 18.8125V25.2H15.0492Z" fill="white"/>
</svg>
