<svg width="32" height="32" viewBox="0 0 32 32" fill="none" xmlns="http://www.w3.org/2000/svg">
<path d="M20 8.66667L12 4L4 8.66667V26.6667L12 23.3333M20 8.66667L28 5.33333V13.3333M20 8.66667V13.3333M12 23.3333V4.66667M12 23.3333L14 24.5M24 20V18.3333M24 20C22.9391 20 21.9217 20.4214 21.1716 21.1716C20.4214 21.9217 20 22.9391 20 24C20 25.0609 20.4214 26.0783 21.1716 26.8284C21.9217 27.5786 22.9391 28 24 28M24 20C25.0609 20 26.0783 20.4214 26.8284 21.1716C27.5786 21.9217 28 22.9391 28 24C28 25.0609 27.5786 26.0783 26.8284 26.8284C26.0783 27.5786 25.0609 28 24 28M24 28V29.6667M20.536 22L19.092 21.1667M27.464 26L28.908 26.8333M27.464 22L28.908 21.1667M20.5333 26L19.0907 26.8333" stroke="#337BCC" stroke-width="2" stroke-linecap="square"/>
</svg>
