<svg width="32" height="32" viewBox="0 0 32 32" fill="none" xmlns="http://www.w3.org/2000/svg">
<path d="M29.334 15.9998V26.6665C29.334 27.3737 29.053 28.052 28.5529 28.5521C28.0528 29.0522 27.3746 29.3332 26.6673 29.3332H5.33398C4.62674 29.3332 3.94846 29.0522 3.44837 28.5521C2.94827 28.052 2.66732 27.3737 2.66732 26.6665V15.9998C2.3137 15.9998 1.97456 15.8594 1.72451 15.6093C1.47446 15.3593 1.33398 15.0201 1.33398 14.6665V10.6665C1.33398 9.95926 1.61494 9.28098 2.11503 8.78089C2.61513 8.28079 3.29341 7.99984 4.00065 7.99984H8.22732C8.07663 7.57148 7.99998 7.12059 8.00065 6.6665C8.00065 5.60564 8.42208 4.58822 9.17222 3.83808C9.92237 3.08793 10.9398 2.6665 12.0007 2.6665C13.334 2.6665 14.5073 3.33317 15.2407 4.31984V4.3065L16.0007 5.33317L16.7607 4.3065V4.31984C17.494 3.33317 18.6673 2.6665 20.0007 2.6665C21.0615 2.6665 22.0789 3.08793 22.8291 3.83808C23.5792 4.58822 24.0007 5.60564 24.0007 6.6665C24.0013 7.12059 23.9247 7.57148 23.774 7.99984H28.0007C28.7079 7.99984 29.3862 8.28079 29.8863 8.78089C30.3864 9.28098 30.6673 9.95926 30.6673 10.6665V14.6665C30.6673 15.0201 30.5268 15.3593 30.2768 15.6093C30.0267 15.8594 29.6876 15.9998 29.334 15.9998ZM5.33398 26.6665H14.6673V15.9998H5.33398V26.6665ZM26.6673 26.6665V15.9998H17.334V26.6665H26.6673ZM12.0007 5.33317C11.647 5.33317 11.3079 5.47365 11.0578 5.7237C10.8078 5.97374 10.6673 6.31288 10.6673 6.6665C10.6673 7.02013 10.8078 7.35926 11.0578 7.60931C11.3079 7.85936 11.647 7.99984 12.0007 7.99984C12.3543 7.99984 12.6934 7.85936 12.9435 7.60931C13.1935 7.35926 13.334 7.02013 13.334 6.6665C13.334 6.31288 13.1935 5.97374 12.9435 5.7237C12.6934 5.47365 12.3543 5.33317 12.0007 5.33317ZM20.0007 5.33317C19.647 5.33317 19.3079 5.47365 19.0578 5.7237C18.8078 5.97374 18.6673 6.31288 18.6673 6.6665C18.6673 7.02013 18.8078 7.35926 19.0578 7.60931C19.3079 7.85936 19.647 7.99984 20.0007 7.99984C20.3543 7.99984 20.6934 7.85936 20.9435 7.60931C21.1935 7.35926 21.334 7.02013 21.334 6.6665C21.334 6.31288 21.1935 5.97374 20.9435 5.7237C20.6934 5.47365 20.3543 5.33317 20.0007 5.33317ZM4.00065 10.6665V13.3332H14.6673V10.6665H4.00065ZM17.334 10.6665V13.3332H28.0007V10.6665H17.334Z" fill="#337BCC"/>
</svg>
