<svg width="48" height="48" viewBox="0 0 48 48" fill="none" xmlns="http://www.w3.org/2000/svg">
<path d="M1.25 46.2505H46.25M8.11 18.2305L40.25 3.63049M40.25 3.63049L37.87 10.0105M40.25 3.63049L33.89 1.25049M11.75 32.2505H5.75C5.35379 32.2557 4.97526 32.4154 4.69507 32.6956C4.41488 32.9757 4.25518 33.3543 4.25 33.7505V46.2505H13.25V33.7505C13.2448 33.3543 13.0851 32.9757 12.8049 32.6956C12.5247 32.4154 12.1462 32.2557 11.75 32.2505ZM26.75 24.2505H20.75C20.3538 24.2557 19.9753 24.4154 19.6951 24.6956C19.4149 24.9757 19.2552 25.3543 19.25 25.7505V46.2505H28.25V25.7505C28.2448 25.3543 28.0851 24.9757 27.8049 24.6956C27.5247 24.4154 27.1462 24.2557 26.75 24.2505ZM41.75 16.2505H35.75C35.3538 16.2557 34.9753 16.4154 34.6951 16.6956C34.4149 16.9757 34.2552 17.3543 34.25 17.7505V46.2505H43.25V17.7505C43.2448 17.3543 43.0851 16.9757 42.8049 16.6956C42.5247 16.4154 42.1462 16.2557 41.75 16.2505Z" stroke="#337BCC" stroke-width="2.5" stroke-linecap="round" stroke-linejoin="round"/>
</svg>
