<svg width="48" height="48" viewBox="0 0 48 48" fill="none" xmlns="http://www.w3.org/2000/svg">
<path d="M28.5 24V21H39.2565L35.817 17.5605L37.938 15.4395L45 22.5L37.938 29.5605L35.817 27.4395L39.2565 24H28.5ZM25.5 18H22.5V8.742L19.0605 12.1815L16.9395 10.0605L24 3L31.0605 10.0605L28.9395 12.1815L25.5 8.742V18ZM25.5 30.1515V27C25.498 25.4093 24.8652 23.8843 23.7404 22.7596C22.6157 21.6348 21.0907 21.002 19.5 21H8.742L12.1815 17.5605L10.0605 15.4395L3 22.5L10.0605 29.5605L12.1815 27.4395L8.742 24H19.5C20.2953 24.0012 21.0577 24.3176 21.62 24.88C22.1824 25.4423 22.4988 26.2047 22.5 27V30.1515C20.6789 30.5232 19.0608 31.5579 17.9592 33.0549C16.8576 34.5519 16.3512 36.4046 16.538 38.2538C16.7248 40.103 17.5916 41.817 18.9703 43.0634C20.349 44.3098 22.1414 45 24 45C25.8586 45 27.651 44.3098 29.0297 43.0634C30.4084 41.817 31.2752 40.103 31.462 38.2538C31.6488 36.4046 31.1424 34.5519 30.0408 33.0549C28.9392 31.5579 27.3211 30.5232 25.5 30.1515ZM24 42C23.11 42 22.24 41.7361 21.4999 41.2416C20.7599 40.7471 20.1831 40.0443 19.8425 39.2221C19.5019 38.3998 19.4128 37.495 19.5865 36.6221C19.7601 35.7492 20.1887 34.9474 20.818 34.318C21.4474 33.6887 22.2492 33.2601 23.1221 33.0865C23.995 32.9128 24.8998 33.0019 25.7221 33.3425C26.5443 33.6831 27.2471 34.2599 27.7416 34.9999C28.2361 35.74 28.5 36.61 28.5 37.5C28.4988 38.6931 28.0243 39.837 27.1807 40.6807C26.337 41.5243 25.1931 41.9988 24 42Z" fill="#337BCC"/>
</svg>
