<svg width="32" height="32" viewBox="0 0 32 32" fill="none" xmlns="http://www.w3.org/2000/svg">
<path d="M14.6667 24.6666C14.6667 24.1555 14.4947 23.6501 14.1507 23.1506C13.8067 22.651 13.4231 22.1288 13 21.5839C12.5769 21.039 12.1938 20.4723 11.8507 19.8839C11.5076 19.2955 11.3351 18.6675 11.3333 17.9999C11.3333 16.711 11.7889 15.611 12.7 14.6999C13.6111 13.7888 14.7111 13.3332 16 13.3332C17.2889 13.3332 18.3889 13.7888 19.3 14.6999C20.2111 15.611 20.6667 16.711 20.6667 17.9999C20.6667 18.6666 20.4947 19.2946 20.1507 19.8839C19.8067 20.4732 19.4231 21.0395 19 21.5826C18.5769 22.1257 18.1938 22.6479 17.8507 23.1492C17.5076 23.6506 17.3351 24.1563 17.3333 24.6666H14.6667ZM16 27.9999C15.6222 27.9999 15.3058 27.8719 15.0507 27.6159C14.7956 27.3599 14.6676 27.0435 14.6667 26.6666V25.9999H17.3333V26.6666C17.3333 27.0443 17.2053 27.3612 16.9493 27.6172C16.6933 27.8732 16.3769 28.0008 16 27.9999ZM24 23.9999C23.8 23.7999 23.6836 23.5443 23.6507 23.2332C23.6178 22.9221 23.6898 22.6443 23.8667 22.3999C24.3333 21.6666 24.6947 20.8723 24.9507 20.0172C25.2067 19.1621 25.3342 18.2675 25.3333 17.3332C25.3333 16.111 25.1164 14.9608 24.6827 13.8826C24.2489 12.8043 23.6436 11.8435 22.8667 10.9999C22.6222 10.711 22.4947 10.3946 22.484 10.0506C22.4733 9.70657 22.6009 9.40079 22.8667 9.13324C23.1324 8.86568 23.4547 8.73235 23.8333 8.73324C24.212 8.73412 24.5231 8.86746 24.7667 9.13324C25.7667 10.1999 26.5556 11.4332 27.1333 12.8332C27.7111 14.2332 28 15.7332 28 17.3332C28 18.5332 27.8333 19.6835 27.5 20.7839C27.1667 21.8843 26.7 22.9008 26.1 23.8332C25.8556 24.211 25.5222 24.411 25.1 24.4332C24.6778 24.4555 24.3111 24.311 24 23.9999ZM5.9 23.8332C5.3 22.8999 4.83333 21.8835 4.5 20.7839C4.16667 19.6843 4 18.5341 4 17.3332C4 13.9999 5.16667 11.1666 7.5 8.83324C9.83333 6.4999 12.6667 5.33324 16 5.33324H16.2667L15.0667 4.13324C14.8222 3.88879 14.7 3.57768 14.7 3.1999C14.7 2.82212 14.8222 2.51101 15.0667 2.26657C15.3111 2.02212 15.6222 1.8999 16 1.8999C16.3778 1.8999 16.6889 2.02212 16.9333 2.26657L20.4 5.73324C20.5333 5.86657 20.6276 6.01101 20.6827 6.16657C20.7378 6.32212 20.7658 6.48879 20.7667 6.66657C20.7676 6.84435 20.7396 7.01101 20.6827 7.16657C20.6258 7.32212 20.5316 7.46657 20.4 7.5999L16.9333 11.0666C16.6667 11.3332 16.3556 11.4612 16 11.4506C15.6444 11.4399 15.3333 11.3008 15.0667 11.0332C14.8 10.7657 14.6667 10.4492 14.6667 10.0839C14.6667 9.71857 14.8 9.40168 15.0667 9.13324L16.2 7.9999H16C13.4222 7.9999 11.2222 8.91101 9.4 10.7332C7.57778 12.5555 6.66667 14.7555 6.66667 17.3332C6.66667 18.2666 6.79467 19.1612 7.05067 20.0172C7.30667 20.8732 7.66756 21.6675 8.13333 22.3999C8.31111 22.6443 8.38356 22.9221 8.35067 23.2332C8.31778 23.5443 8.20089 23.7999 8 23.9999C7.68889 24.311 7.32222 24.4555 6.9 24.4332C6.47778 24.411 6.14444 24.211 5.9 23.8332Z" fill="#337BCC"/>
</svg>
