<svg width="32" height="32" viewBox="0 0 32 32" fill="none" xmlns="http://www.w3.org/2000/svg">
<path d="M15.0016 14C15.1563 13.9997 15.309 14.0353 15.4476 14.104L31.4476 22.104C31.6129 22.1877 31.7517 22.3155 31.8487 22.4733C31.9457 22.6312 31.9971 22.8128 31.9971 22.998C31.9971 23.1833 31.9457 23.3649 31.8487 23.5227C31.7517 23.6805 31.6129 23.8084 31.4476 23.892L15.4476 31.892C15.2721 31.9794 15.0747 32.0133 14.8801 31.9894C14.6855 31.9655 14.5022 31.8849 14.353 31.7577C14.2038 31.6305 14.0953 31.4622 14.041 31.2738C13.9867 31.0854 13.989 30.8851 14.0476 30.698L16.1396 24H24.9996C25.2648 24 25.5192 23.8947 25.7067 23.7071C25.8942 23.5196 25.9996 23.2652 25.9996 23C25.9996 22.7348 25.8942 22.4805 25.7067 22.2929C25.5192 22.1054 25.2648 22 24.9996 22H16.1396L14.0456 15.3C13.9975 15.1501 13.9857 14.9908 14.0111 14.8354C14.0365 14.68 14.0984 14.5328 14.1917 14.4059C14.285 14.2791 14.407 14.1761 14.5478 14.1056C14.6886 14.035 14.8441 13.9988 15.0016 14Z" fill="#337BCC"/>
<path d="M16.0002 4C17.9513 3.99976 19.8353 4.71258 21.2976 6.00434C22.7599 7.2961 23.6997 9.07773 23.9402 11.014C25.5843 11.1255 27.1247 11.8574 28.2497 13.0615C29.3747 14.2656 30.0004 15.8521 30.0002 17.5C30.0002 18.034 29.9202 18.546 29.7962 19.042L27.9362 18.114C27.9662 17.912 28.0002 17.71 28.0002 17.5C28.0002 16.3065 27.5261 15.1619 26.6822 14.318C25.8382 13.4741 24.6936 13 23.5002 13H23.0002C22.735 13 22.4806 12.8946 22.2931 12.7071C22.1055 12.5196 22.0002 12.2652 22.0002 12C22.0002 10.4087 21.368 8.88258 20.2428 7.75736C19.1176 6.63214 17.5915 6 16.0002 6C14.4089 6 12.8827 6.63214 11.7575 7.75736C10.6323 8.88258 10.0002 10.4087 10.0002 12C10.0002 12.2652 9.89481 12.5196 9.70728 12.7071C9.51974 12.8946 9.26539 13 9.00017 13H8.50017C7.90922 13 7.32406 13.1164 6.7781 13.3425C6.23213 13.5687 5.73605 13.9002 5.31819 14.318C4.90033 14.7359 4.56886 15.232 4.34271 15.7779C4.11657 16.3239 4.00017 16.9091 4.00017 17.5C4.00017 18.0909 4.11657 18.6761 4.34271 19.2221C4.56886 19.768 4.90033 20.2641 5.31819 20.682C5.73605 21.0998 6.23213 21.4313 6.7781 21.6575C7.32406 21.8836 7.90922 22 8.50017 22H14.0002V24H8.50017C6.81199 24.0036 5.18863 23.3502 3.97361 22.1782C2.75858 21.0061 2.04723 19.4073 1.99006 17.7201C1.93289 16.0329 2.5344 14.3896 3.6673 13.138C4.8002 11.8864 6.37561 11.1247 8.06017 11.014C8.30065 9.07773 9.24046 7.2961 10.7028 6.00434C12.1651 4.71258 14.049 3.99976 16.0002 4Z" fill="#337BCC"/>
</svg>
