<svg width="28" height="28" viewBox="0 0 28 28" fill="none" xmlns="http://www.w3.org/2000/svg">
<path d="M13.9993 25.6668C11.2966 24.9863 9.06513 23.4354 7.30502 21.0142C5.54491 18.5929 4.66524 15.9049 4.66602 12.9502V5.8335L13.9993 2.3335L23.3327 5.8335V12.9502C23.3327 15.9057 22.453 18.5941 20.6937 21.0153C18.9344 23.4366 16.7029 24.9871 13.9993 25.6668ZM13.9993 23.2168C15.8855 22.6335 17.4605 21.4812 18.7243 19.76C19.9882 18.0388 20.7271 16.1188 20.941 14.0002H13.9993V4.81266L6.99935 7.43766V13.4752C6.99935 13.6113 7.01879 13.7863 7.05768 14.0002H13.9993V23.2168Z" fill="white"/>
</svg>
