<svg width="32" height="32" viewBox="0 0 32 32" fill="none" xmlns="http://www.w3.org/2000/svg">
<g clip-path="url(#clip0_158_147)">
<path d="M14.4 0C10.5809 0 6.91819 1.51714 4.21766 4.21766C1.51714 6.91819 0 10.5809 0 14.4C0 18.2191 1.51714 21.8818 4.21766 24.5823C6.91819 27.2829 10.5809 28.8 14.4 28.8C18.2191 28.8 21.8818 27.2829 24.5823 24.5823C27.2829 21.8818 28.8 18.2191 28.8 14.4C28.8 10.5809 27.2829 6.91819 24.5823 4.21766C21.8818 1.51714 18.2191 0 14.4 0ZM19.936 19.12C19.936 21.472 18.656 24.4 13.44 26.64C13.92 19.968 9.408 20.736 8.32 18.64C8.41909 17.7729 8.73484 16.9446 9.23814 16.2316C9.74145 15.5186 10.4161 14.9437 11.2 14.56C8.71733 14.1333 6.40195 13.0255 4.512 11.36C4.592 12.112 4.9584 12.8064 5.536 13.296C4.28562 12.8226 3.20488 11.987 2.432 10.896C3.19484 8.37824 4.72051 6.1594 6.79836 4.54584C8.87621 2.93228 11.4038 2.00359 14.032 1.888C12.688 4.096 11.632 8.496 14.032 10.8C11.568 11.2 10.016 8 8.656 9.264C6.848 10.96 9.184 13.28 14.128 14.192C19.392 15.136 19.984 16.72 19.936 19.12ZM22.08 12.72C21.568 10.944 23.072 9.152 24.784 7.696C25.8532 9.23715 26.5338 11.014 26.7678 12.875C27.0018 14.7361 26.7823 16.6261 26.128 18.384C24.896 15.36 22.656 14.672 22.08 12.672V12.72Z" fill="#337BCC"/>
</g>
<defs>
<clipPath id="clip0_158_147">
<rect width="32" height="32" fill="white"/>
</clipPath>
</defs>
</svg>
