<svg width="28" height="28" viewBox="0 0 28 28" fill="none" xmlns="http://www.w3.org/2000/svg">
<g clip-path="url(#clip0_537_35)">
<path d="M11.4108 11.1224C13.9881 11.1224 16.0775 9.03306 16.0775 6.45573C16.0775 3.8784 13.9881 1.78906 11.4108 1.78906C8.83348 1.78906 6.74414 3.8784 6.74414 6.45573C6.74414 9.03306 8.83348 11.1224 11.4108 11.1224Z" fill="white"/>
<path d="M12.7858 24.7488C12.5288 24.4946 12.361 24.1639 12.3078 23.8063C12.2545 23.4488 12.3185 23.0836 12.4902 22.7655L12.9025 21.9877L12.0547 21.731C11.709 21.6228 11.408 21.4048 11.1974 21.11C10.9869 20.8152 10.8783 20.4598 10.888 20.0977V18.5032C10.8874 18.1427 11.0027 17.7915 11.217 17.5016C11.4313 17.2117 11.7332 16.9984 12.078 16.8932L12.9258 16.6366L12.5214 15.8588C12.3546 15.545 12.2912 15.1866 12.3401 14.8347C12.389 14.4828 12.5477 14.1553 12.7936 13.8988C12.1952 13.8205 11.5926 13.779 10.9891 13.7744C9.20672 13.7324 7.437 14.0843 5.80621 14.8049C4.17541 15.5255 2.72373 16.5971 1.55469 17.9432V23.971C1.55469 24.1773 1.63663 24.3751 1.78249 24.521C1.92835 24.6669 2.12619 24.7488 2.33247 24.7488H12.7858Z" fill="white"/>
<path d="M26.2111 18.2467L24.6555 17.7801C24.5479 17.3959 24.3966 17.0253 24.2044 16.6756L24.9822 15.229C25.0123 15.1753 25.0233 15.113 25.0134 15.0522C25.0035 14.9915 24.9733 14.9359 24.9278 14.8945L23.8 13.759C23.7565 13.7167 23.7012 13.6888 23.6413 13.6791C23.5815 13.6693 23.5201 13.6782 23.4655 13.7045L22.0267 14.4823C21.6726 14.2897 21.2999 14.1334 20.9144 14.0156L20.44 12.4601C20.4191 12.4027 20.381 12.3532 20.3308 12.3184C20.2807 12.2836 20.221 12.2652 20.16 12.2656H18.5422C18.4816 12.2673 18.4229 12.2876 18.3742 12.3238C18.3255 12.36 18.2891 12.4103 18.27 12.4679L17.8033 14.0234C17.4108 14.1387 17.0324 14.2978 16.6755 14.4979L15.2678 13.7201C15.213 13.691 15.1505 13.6798 15.0891 13.6882C15.0277 13.6966 14.9705 13.7241 14.9255 13.7667L13.7822 14.8867C13.7372 14.9301 13.7075 14.987 13.6977 15.0487C13.6879 15.1105 13.6984 15.1738 13.7278 15.229L14.5055 16.6445C14.297 16.9957 14.1274 17.3687 14 17.7567L12.4444 18.2312C12.3856 18.2482 12.3339 18.284 12.2974 18.3332C12.2609 18.3824 12.2415 18.4422 12.2422 18.5034V20.0979C12.2415 20.1591 12.2609 20.2189 12.2974 20.2681C12.3339 20.3172 12.3856 20.3531 12.4444 20.3701L14 20.8445C14.1166 21.2254 14.2731 21.593 14.4667 21.9412L13.6889 23.419C13.6595 23.4742 13.649 23.5374 13.6588 23.5992C13.6686 23.6609 13.6983 23.7178 13.7433 23.7612L14.9022 24.889C14.9472 24.9316 15.0044 24.9591 15.0658 24.9675C15.1272 24.9759 15.1897 24.9647 15.2444 24.9356L16.6989 24.1579C17.0448 24.3445 17.4099 24.4931 17.7878 24.6012L18.2544 26.1956C18.274 26.2544 18.3116 26.3056 18.3618 26.3419C18.4121 26.3782 18.4724 26.3978 18.5344 26.3979H20.1289C20.1895 26.3962 20.2482 26.3758 20.2969 26.3397C20.3456 26.3035 20.382 26.2532 20.4011 26.1956L20.8678 24.6012C21.2409 24.4939 21.601 24.3452 21.9411 24.1579L23.4111 24.9356C23.4658 24.9647 23.5283 24.9759 23.5897 24.9675C23.6511 24.9591 23.7084 24.9316 23.7533 24.889L24.8889 23.7612C24.9316 23.7162 24.959 23.659 24.9674 23.5976C24.9758 23.5362 24.9646 23.4737 24.9355 23.419L24.1578 21.9567C24.3434 21.6158 24.492 21.256 24.6011 20.8834L26.1567 20.409C26.2151 20.3902 26.2664 20.3541 26.3039 20.3055C26.3414 20.2569 26.3633 20.198 26.3667 20.1367V18.5267C26.3686 18.4704 26.3551 18.4145 26.3277 18.3652C26.3003 18.3159 26.26 18.2749 26.2111 18.2467ZM19.3433 21.9179C18.8292 21.9194 18.3262 21.7683 17.898 21.4838C17.4697 21.1993 17.1356 20.7941 16.9377 20.3196C16.7399 19.8451 16.6874 19.3225 16.7867 18.8181C16.8861 18.3136 17.1329 17.85 17.4959 17.4859C17.8589 17.1219 18.3217 16.8737 18.8259 16.7728C19.33 16.6719 19.8527 16.7229 20.3279 16.9193C20.803 17.1157 21.2092 17.4487 21.495 17.876C21.7808 18.3034 21.9333 18.806 21.9333 19.3201C21.9333 20.0077 21.6607 20.6673 21.1752 21.1542C20.6897 21.6412 20.0309 21.9158 19.3433 21.9179Z" fill="white"/>
</g>
<defs>
<clipPath id="clip0_537_35">
<rect width="28" height="28" fill="white"/>
</clipPath>
</defs>
</svg>
