<svg width="48" height="48" viewBox="0 0 48 48" fill="none" xmlns="http://www.w3.org/2000/svg">
<path d="M43.4196 40.58L40.5796 43.42C40.2049 43.7925 39.698 44.0016 39.1696 44.0016C38.6413 44.0016 38.1344 43.7925 37.7596 43.42L13.9996 19.7C13.3493 19.8887 12.6767 19.9895 11.9996 20C10.7262 19.9991 9.47146 19.6942 8.33961 19.1107C7.20777 18.5272 6.23156 17.682 5.49216 16.6453C4.75275 15.6085 4.27151 14.4103 4.08845 13.1501C3.90538 11.8899 4.02578 10.6043 4.43963 9.4L9.51963 14.48L10.5796 13.42L13.4196 10.58L14.4796 9.52L9.39963 4.44C10.6039 4.02615 11.8896 3.90575 13.1497 4.08881C14.4099 4.27188 15.6082 4.75312 16.6449 5.49252C17.6816 6.23193 18.5269 7.20814 19.1104 8.33998C19.6938 9.47182 19.9987 10.7266 19.9996 12C19.9892 12.6771 19.8883 13.3497 19.6996 14L43.4196 37.76C43.7921 38.1347 44.0012 38.6416 44.0012 39.17C44.0012 39.6984 43.7921 40.2053 43.4196 40.58ZM4.57963 37.76C4.20713 38.1347 3.99805 38.6416 3.99805 39.17C3.99805 39.6984 4.20713 40.2053 4.57963 40.58L7.41963 43.42C7.79436 43.7925 8.30126 44.0016 8.82963 44.0016C9.358 44.0016 9.86491 43.7925 10.2396 43.42L21.1796 32.5L15.5196 26.84M39.9996 4L31.9996 8V12L27.6596 16.34L31.6596 20.34L35.9996 16H39.9996L43.9996 8L39.9996 4Z" fill="#337BCC"/>
</svg>
